<svg width="40" height="44" viewBox="0 0 40 44" fill="none" xmlns="http://www.w3.org/2000/svg">
<path fill-rule="evenodd" clip-rule="evenodd" d="M18.4049 0.410611C19.4056 -0.143637 20.9919 -0.133293 21.9721 0.420456L38.2252 9.60255C39.1992 10.1528 40 11.5287 40 12.668V31.3337C40 32.4748 39.2054 33.8454 38.2252 34.3993L21.9721 43.583C20.9981 44.1334 19.3948 44.1413 18.4049 43.5929L1.79238 34.3894C0.791759 33.8351 0 32.4729 0 31.3337V12.668C0 11.5269 0.802475 10.1607 1.79238 9.6124L18.4049 0.410611ZM28.4866 18.7793C28.3172 15.5032 23.8502 13.9058 21.5414 14.5256C21.1283 14.6365 18.9369 14.9486 16.8644 17.4423L16.5717 14.6366H10.176V16.0044H12.9064V32.0718H10.3798V33.3583H19.4386V32.0718H16.8704L16.8702 18.8282C19.0634 16.5123 20.5368 16.1465 21.4404 16.0325C23.0102 15.8351 24.3073 17.2955 24.3073 19.292V33.3701H31.3541V32.0883H28.4915V19.0002L28.4866 18.7793ZM14.8072 8.83278C13.7095 8.83278 12.819 9.71789 12.819 10.8089C12.819 11.9009 13.7095 12.7854 14.8072 12.7854C15.9051 12.7854 16.7959 11.9009 16.7959 10.8089C16.7959 9.71789 15.9051 8.83278 14.8072 8.83278Z" fill="#E7A73B"/>
</svg>
